<?xml version="1.0" standalone="no"?><?xml-stylesheet type="text/css" href="https://wps.processon.com/themes/default/wps/mind/icons/icons.css" ?><!DOCTYPE svg PUBLIC "-//W3C//DTD SVG 1.1//EN" "http://www.w3.org/Graphics/SVG/1.1/DTD/svg11.dtd"><svg id="SvgjsSvg1299" width="548.8969577198914" height="662.4988281878506" xmlns="http://www.w3.org/2000/svg" version="1.1" xmlns:xlink="http://www.w3.org/1999/xlink" xmlns:svgjs="http://svgjs.com/svgjs"><defs id="SvgjsDefs1300"><pattern patternUnits="userSpaceOnUse" id="pattern_mark_0" width="300" height="300"><text x="150" y="100" fill="rgba(229,229,229,0.8)" font-size="18" transform="rotate(-45, 150, 150)" style="dominant-baseline: middle; text-anchor: middle;"></text></pattern><pattern patternUnits="userSpaceOnUse" id="pattern_mark_1" width="300" height="300"><text x="150" y="200" fill="rgba(229,229,229,0.8)" font-size="18" transform="rotate(-45, 150, 150)" style="dominant-baseline: middle; text-anchor: middle;"></text></pattern><marker id="SvgjsMarker1460" markerWidth="13" markerHeight="9" refX="9.5" refY="4.5" viewBox="0 0 13 9" orient="auto" markerUnits="userSpaceOnUse" stroke-dasharray="0,0"><path id="SvgjsPath1461" d="M0,0 L13,4.5 L0,9 L0,0" fill="#323232" stroke="#323232" stroke-width="1"></path></marker><marker id="SvgjsMarker1464" markerWidth="13" markerHeight="9" refX="9.5" refY="4.5" viewBox="0 0 13 9" orient="auto" markerUnits="userSpaceOnUse" stroke-dasharray="0,0"><path id="SvgjsPath1465" d="M0,0 L13,4.5 L0,9 L0,0" fill="#323232" stroke="#323232" stroke-width="1"></path></marker><marker id="SvgjsMarker1468" markerWidth="13" markerHeight="9" refX="9.5" refY="4.5" viewBox="0 0 13 9" orient="auto" markerUnits="userSpaceOnUse" stroke-dasharray="0,0"><path id="SvgjsPath1469" d="M0,0 L13,4.5 L0,9 L0,0" fill="#323232" stroke="#323232" stroke-width="1"></path></marker><marker id="SvgjsMarker1472" markerWidth="13" markerHeight="9" refX="9.5" refY="4.5" viewBox="0 0 13 9" orient="auto" markerUnits="userSpaceOnUse" stroke-dasharray="0,0"><path id="SvgjsPath1473" d="M0,0 L13,4.5 L0,9 L0,0" fill="#323232" stroke="#323232" stroke-width="1"></path></marker><marker id="SvgjsMarker1476" markerWidth="13" markerHeight="9" refX="9.5" refY="4.5" viewBox="0 0 13 9" orient="auto" markerUnits="userSpaceOnUse" stroke-dasharray="0,0"><path id="SvgjsPath1477" d="M0,0 L13,4.5 L0,9 L0,0" fill="#323232" stroke="#323232" stroke-width="1"></path></marker><marker id="SvgjsMarker1480" markerWidth="13" markerHeight="9" refX="9.5" refY="4.5" viewBox="0 0 13 9" orient="auto" markerUnits="userSpaceOnUse" stroke-dasharray="0,0"><path id="SvgjsPath1481" d="M0,0 L13,4.5 L0,9 L0,0" fill="#323232" stroke="#323232" stroke-width="1"></path></marker><marker id="SvgjsMarker1484" markerWidth="13" markerHeight="9" refX="9.5" refY="4.5" viewBox="0 0 13 9" orient="auto" markerUnits="userSpaceOnUse" stroke-dasharray="0,0"><path id="SvgjsPath1485" d="M0,0 L13,4.5 L0,9 L0,0" fill="#323232" stroke="#323232" stroke-width="1"></path></marker><marker id="SvgjsMarker1512" markerWidth="13" markerHeight="9" refX="9.5" refY="4.5" viewBox="0 0 13 9" orient="auto" markerUnits="userSpaceOnUse" stroke-dasharray="0,0"><path id="SvgjsPath1513" d="M0,0 L13,4.5 L0,9 L0,0" fill="#323232" stroke="#323232" stroke-width="1"></path></marker><marker id="SvgjsMarker1516" markerWidth="13" markerHeight="9" refX="9.5" refY="4.5" viewBox="0 0 13 9" orient="auto" markerUnits="userSpaceOnUse" stroke-dasharray="0,0"><path id="SvgjsPath1517" d="M0,0 L13,4.5 L0,9 L0,0" fill="#323232" stroke="#323232" stroke-width="1"></path></marker><marker id="SvgjsMarker1526" markerWidth="13" markerHeight="9" refX="9.5" refY="4.5" viewBox="0 0 13 9" orient="auto" markerUnits="userSpaceOnUse" stroke-dasharray="0,0"><path id="SvgjsPath1527" d="M0,0 L13,4.5 L0,9 L0,0" fill="#323232" stroke="#323232" stroke-width="1"></path></marker><marker id="SvgjsMarker1530" markerWidth="13" markerHeight="9" refX="9.5" refY="4.5" viewBox="0 0 13 9" orient="auto" markerUnits="userSpaceOnUse" stroke-dasharray="0,0"><path id="SvgjsPath1531" d="M0,0 L13,4.5 L0,9 L0,0" fill="#323232" stroke="#323232" stroke-width="1"></path></marker><marker id="SvgjsMarker1534" markerWidth="13" markerHeight="9" refX="9.5" refY="4.5" viewBox="0 0 13 9" orient="auto" markerUnits="userSpaceOnUse" stroke-dasharray="0,0"><path id="SvgjsPath1535" d="M0,0 L13,4.5 L0,9 L0,0" fill="#323232" stroke="#323232" stroke-width="1"></path></marker><marker id="SvgjsMarker1538" markerWidth="13" markerHeight="9" refX="9.5" refY="4.5" viewBox="0 0 13 9" orient="auto" markerUnits="userSpaceOnUse" stroke-dasharray="0,0"><path id="SvgjsPath1539" d="M0,0 L13,4.5 L0,9 L0,0" fill="#323232" stroke="#323232" stroke-width="1"></path></marker><marker id="SvgjsMarker1542" markerWidth="13" markerHeight="9" refX="9.5" refY="4.5" viewBox="0 0 13 9" orient="auto" markerUnits="userSpaceOnUse" stroke-dasharray="0,0"><path id="SvgjsPath1543" d="M0,0 L13,4.5 L0,9 L0,0" fill="#323232" stroke="#323232" stroke-width="1"></path></marker><marker id="SvgjsMarker1546" markerWidth="13" markerHeight="9" refX="9.5" refY="4.5" viewBox="0 0 13 9" orient="auto" markerUnits="userSpaceOnUse" stroke-dasharray="0,0"><path id="SvgjsPath1547" d="M0,0 L13,4.5 L0,9 L0,0" fill="#323232" stroke="#323232" stroke-width="1"></path></marker><marker id="SvgjsMarker1550" markerWidth="13" markerHeight="9" refX="9.5" refY="4.5" viewBox="0 0 13 9" orient="auto" markerUnits="userSpaceOnUse" stroke-dasharray="0,0"><path id="SvgjsPath1551" d="M0,0 L13,4.5 L0,9 L0,0" fill="#323232" stroke="#323232" stroke-width="1"></path></marker><marker id="SvgjsMarker1560" markerWidth="13" markerHeight="9" refX="9.5" refY="4.5" viewBox="0 0 13 9" orient="auto" markerUnits="userSpaceOnUse" stroke-dasharray="0,0"><path id="SvgjsPath1561" d="M0,0 L13,4.5 L0,9 L0,0" fill="#323232" stroke="#323232" stroke-width="1"></path></marker><marker id="SvgjsMarker1564" markerWidth="13" markerHeight="9" refX="9.5" refY="4.5" viewBox="0 0 13 9" orient="auto" markerUnits="userSpaceOnUse" stroke-dasharray="0,0"><path id="SvgjsPath1565" d="M0,0 L13,4.5 L0,9 L0,0" fill="#323232" stroke="#323232" stroke-width="1"></path></marker><marker id="SvgjsMarker1568" markerWidth="13" markerHeight="9" refX="9.5" refY="4.5" viewBox="0 0 13 9" orient="auto" markerUnits="userSpaceOnUse" stroke-dasharray="0,0"><path id="SvgjsPath1569" d="M0,0 L13,4.5 L0,9 L0,0" fill="#323232" stroke="#323232" stroke-width="1"></path></marker><marker id="SvgjsMarker1582" markerWidth="13" markerHeight="9" refX="9.5" refY="4.5" viewBox="0 0 13 9" orient="auto" markerUnits="userSpaceOnUse" stroke-dasharray="0,0"><path id="SvgjsPath1583" d="M0,0 L13,4.5 L0,9 L0,0" fill="#323232" stroke="#323232" stroke-width="1"></path></marker><marker id="SvgjsMarker1586" markerWidth="13" markerHeight="9" refX="9.5" refY="4.5" viewBox="0 0 13 9" orient="auto" markerUnits="userSpaceOnUse" stroke-dasharray="0,0"><path id="SvgjsPath1587" d="M0,0 L13,4.5 L0,9 L0,0" fill="#323232" stroke="#323232" stroke-width="1"></path></marker></defs><rect id="svgbackgroundid" width="548.8969577198914" height="662.4988281878506" fill="rgb(255,255,255)"></rect><rect id="SvgjsRect1302" width="548.8969577198914" height="662.4988281878506" fill="url(#pattern_mark_0)"></rect><rect id="SvgjsRect1303" width="548.8969577198914" height="662.4988281878506" fill="url(#pattern_mark_1)"></rect><g id="SvgjsG1304" transform="translate(25.64435700835969,85.88085999063037)"><path id="SvgjsPath1305" d="M 0 0L 498.077 0L 498.077 463.841L 0 463.841Z" stroke-dasharray="7.5,3" stroke="rgba(50,50,50,1)" stroke-width="1.5" fill="none"></path><g id="SvgjsG1306"><text id="SvgjsText1307" font-family="&quot;Times New Roman&quot;" text-anchor="middle" font-size="14px" width="479px" fill="#323232" font-weight="700" align="middle" lineHeight="125%" anchor="middle" family="&quot;Times New Roman&quot;" size="14px" weight="700" font-style="" opacity="1" y="220.1705" transform="rotate(0)"></text></g></g><g id="SvgjsG1308" transform="translate(25.820213161467734,569.7222064166242)"><path id="SvgjsPath1309" d="M 0 4Q 0 0 4 0L 494.077 0Q 498.077 0 498.077 4L 498.077 63.777Q 498.077 67.777 494.077 67.777L 4 67.777Q 0 67.777 0 63.777Z" stroke-dasharray="7.5,3" stroke="rgba(50,50,50,1)" stroke-width="1.5" fill="none"></path><g id="SvgjsG1310"><text id="SvgjsText1311" font-family="&quot;Times New Roman&quot;" text-anchor="middle" font-size="14px" width="479px" fill="#323232" font-weight="700" align="middle" lineHeight="125%" anchor="middle" family="&quot;Times New Roman&quot;" size="14px" weight="700" font-style="" opacity="1" y="22.1385" transform="rotate(0)"></text></g></g><g id="SvgjsG1312" transform="translate(41.51550840793146,479.0555346636945)"><path id="SvgjsPath1313" d="M 0 4Q 0 0 4 0L 461.046 0Q 465.046 0 465.046 4L 465.046 58.05Q 465.046 62.05 461.046 62.05L 4 62.05Q 0 62.05 0 58.05Z" stroke="rgba(50,50,50,1)" stroke-width="1.5" fill="none"></path><g id="SvgjsG1314"><text id="SvgjsText1315" font-family="&quot;Times New Roman&quot;" text-anchor="middle" font-size="14px" width="446px" fill="#323232" font-weight="700" align="middle" lineHeight="125%" anchor="middle" family="&quot;Times New Roman&quot;" size="14px" weight="700" font-style="" opacity="1" y="19.275" transform="rotate(0)"></text></g></g><g id="SvgjsG1316" transform="translate(25,479.05553466369463)"><path id="SvgjsPath1317" d="M 0 0L 105.08 0L 105.08 33.991L 0 33.991Z" stroke="none" fill="none"></path><g id="SvgjsG1318"><text id="SvgjsText1319" font-family="&quot;Times New Roman&quot;" text-anchor="middle" font-size="18px" width="106px" fill="#323232" font-weight="700" align="middle" lineHeight="125%" anchor="middle" family="&quot;Times New Roman&quot;" size="18px" weight="700" font-style="" opacity="1" y="1.2454999999999998" transform="rotate(0)"><tspan id="SvgjsTspan1320" dy="22.5" x="53"><tspan id="SvgjsTspan1321" style="">QState</tspan></tspan></text></g></g><g id="SvgjsG1322" transform="translate(417.7961504202592,511.75634239847204)"><path id="SvgjsPath1323" d="M 6.525 0L 66.817 0C 75.517 0 75.517 19.575 66.817 19.575L 6.525 19.575C -2.175 19.575 -2.175 0 6.525 0Z" stroke-dasharray="7.5,3" stroke="rgba(50,50,50,1)" stroke-width="1.5" fill-opacity="1" fill="#d6d6d6"></path><g id="SvgjsG1324"><text id="SvgjsText1325" font-family="&quot;Times New Roman&quot;" text-anchor="middle" font-size="14px" width="54px" fill="#323232" font-weight="700" align="middle" lineHeight="125%" anchor="middle" family="&quot;Times New Roman&quot;" size="14px" weight="700" font-style="" opacity="1" y="-1.9625000000000004" transform="rotate(0)"><tspan id="SvgjsTspan1326" dy="17.5" x="37"><tspan id="SvgjsTspan1327" style="">Basic</tspan></tspan></text></g></g><g id="SvgjsG1328" transform="translate(169.1233357595828,513.0463554775524)"><path id="SvgjsPath1329" d="M 5.665 0L 81.474 0C 89.027 0 89.027 16.995 81.474 16.995L 5.665 16.995C -1.888 16.995 -1.888 0 5.665 0Z" stroke-dasharray="7.5,3" stroke="rgba(50,50,50,1)" stroke-width="1.5" fill-opacity="1" fill="#d6d6d6"></path><g id="SvgjsG1330"><text id="SvgjsText1331" font-family="&quot;Times New Roman&quot;" text-anchor="middle" font-size="14px" width="68px" fill="#323232" font-weight="700" align="middle" lineHeight="125%" anchor="middle" family="&quot;Times New Roman&quot;" size="14px" weight="700" font-style="" opacity="1" y="-3.2524999999999995" transform="rotate(0)"><tspan id="SvgjsTspan1332" dy="17.5" x="44"><tspan id="SvgjsTspan1333" style="">QState_L</tspan></tspan></text></g></g><g id="SvgjsG1334" transform="translate(288.1450483797421,511.4236009296617)"><path id="SvgjsPath1335" d="M 6.747 0L 94.867 0C 103.863 0 103.863 20.241 94.867 20.241L 6.747 20.241C -2.249 20.241 -2.249 0 6.747 0Z" stroke-dasharray="7.5,3" stroke="rgba(50,50,50,1)" stroke-width="1.5" fill-opacity="1" fill="#d6d6d6"></path><g id="SvgjsG1336"><text id="SvgjsText1337" font-family="&quot;Times New Roman&quot;" text-anchor="middle" font-size="14px" width="82px" fill="#323232" font-weight="700" align="middle" lineHeight="125%" anchor="middle" family="&quot;Times New Roman&quot;" size="14px" weight="700" font-style="" opacity="1" y="-1.6295000000000002" transform="rotate(0)"><tspan id="SvgjsTspan1338" dy="17.5" x="51"><tspan id="SvgjsTspan1339" style="">Mixed_State</tspan></tspan></text></g></g><g id="SvgjsG1340" transform="translate(62.30996494019166,513.0463554775524)"><path id="SvgjsPath1341" d="M 5.665 0L 75.273 0C 82.827 0 82.827 16.995 75.273 16.995L 5.665 16.995C -1.888 16.995 -1.888 0 5.665 0Z" stroke-dasharray="7.5,3" stroke="rgba(50,50,50,1)" stroke-width="1.5" fill-opacity="1" fill="#d6d6d6"></path><g id="SvgjsG1342"><text id="SvgjsText1343" font-family="&quot;Times New Roman&quot;" text-anchor="middle" font-size="14px" width="61px" fill="#323232" font-weight="700" align="middle" lineHeight="125%" anchor="middle" family="&quot;Times New Roman&quot;" size="14px" weight="700" font-style="" opacity="1" y="-3.2524999999999995" transform="rotate(0)"><tspan id="SvgjsTspan1344" dy="17.5" x="40.5"><tspan id="SvgjsTspan1345" style="">Reduced</tspan></tspan></text></g></g><g id="SvgjsG1346" transform="translate(89.43095479699173,355.6515418491305)"><path id="SvgjsPath1347" d="M 0 4Q 0 0 4 0L 141.999 0Q 145.999 0 145.999 4L 145.999 78.555Q 145.999 82.555 141.999 82.555L 4 82.555Q 0 82.555 0 78.555Z" stroke="rgba(50,50,50,1)" stroke-width="1.5" fill="none"></path><g id="SvgjsG1348"><text id="SvgjsText1349" font-family="&quot;Times New Roman&quot;" text-anchor="middle" font-size="14px" width="126px" fill="#323232" font-weight="700" align="middle" lineHeight="125%" anchor="middle" family="&quot;Times New Roman&quot;" size="14px" weight="700" font-style="" opacity="1" y="29.527500000000003" transform="rotate(0)"></text></g></g><g id="SvgjsG1350" transform="translate(62.30996494019166,356.00413152467826)"><path id="SvgjsPath1351" d="M 0 0L 113.043 0L 113.043 24.944L 0 24.944Z" stroke="none" fill="none"></path><g id="SvgjsG1352"><text id="SvgjsText1353" font-family="&quot;Times New Roman&quot;" text-anchor="middle" font-size="18px" width="114px" fill="#323232" font-weight="700" align="middle" lineHeight="125%" anchor="middle" family="&quot;Times New Roman&quot;" size="18px" weight="700" font-style="" opacity="1" y="-3.2780000000000005" transform="rotate(0)"><tspan id="SvgjsTspan1354" dy="22.5" x="57"><tspan id="SvgjsTspan1355" style="">QIMP</tspan></tspan></text></g></g><g id="SvgjsG1356" transform="translate(113.8264523646726,414.0872399524012)"><path id="SvgjsPath1357" d="M 6.387 0L 96.726 0C 105.242 0 105.242 19.161 96.726 19.161L 6.387 19.161C -2.129 19.161 -2.129 0 6.387 0Z" stroke-dasharray="7.5,3" stroke="rgba(50,50,50,1)" stroke-width="1.5" fill-opacity="1" fill="#d6d6d6"></path><g id="SvgjsG1358"><text id="SvgjsText1359" font-family="&quot;Times New Roman&quot;" text-anchor="middle" font-size="14px" width="84px" fill="#323232" font-weight="700" align="middle" lineHeight="125%" anchor="middle" family="&quot;Times New Roman&quot;" size="14px" weight="700" font-style="" opacity="1" y="-2.1694999999999993" transform="rotate(0)"><tspan id="SvgjsTspan1360" dy="17.5" x="52"><tspan id="SvgjsTspan1361" style="">QIMP_L</tspan></tspan></text></g></g><g id="SvgjsG1362" transform="translate(113.8264523646726,381.30064924979666)"><path id="SvgjsPath1363" d="M 5.793 0L 97.32 0C 105.043 0 105.043 17.378 97.32 17.378L 5.793 17.378C -1.931 17.378 -1.931 0 5.793 0Z" stroke-dasharray="7.5,3" stroke="rgba(50,50,50,1)" stroke-width="1.5" fill-opacity="1" fill="#d6d6d6"></path><g id="SvgjsG1364"><text id="SvgjsText1365" font-family="&quot;Times New Roman&quot;" text-anchor="middle" font-size="14px" width="84px" fill="#323232" font-weight="700" align="middle" lineHeight="125%" anchor="middle" family="&quot;Times New Roman&quot;" size="14px" weight="700" font-style="" opacity="1" y="-3.061" transform="rotate(0)"><tspan id="SvgjsTspan1366" dy="17.5" x="52"><tspan id="SvgjsTspan1367" style="">Ceval_Prop</tspan></tspan></text></g></g><g id="SvgjsG1368" transform="translate(320.72074891014927,355.6515418491305)"><path id="SvgjsPath1369" d="M 0 4Q 0 0 4 0L 133.265 0Q 137.265 0 137.265 4L 137.265 79.573Q 137.265 83.573 133.265 83.573L 4 83.573Q 0 83.573 0 79.573Z" stroke="rgba(50,50,50,1)" stroke-width="1.5" fill="none"></path><g id="SvgjsG1370"><text id="SvgjsText1371" font-family="&quot;Times New Roman&quot;" text-anchor="middle" font-size="14px" width="118px" fill="#323232" font-weight="700" align="middle" lineHeight="125%" anchor="middle" family="&quot;Times New Roman&quot;" size="14px" weight="700" font-style="" opacity="1" y="30.036499999999997" transform="rotate(0)"></text></g></g><g id="SvgjsG1372" transform="translate(308.01479949147176,355.6515418491305)"><path id="SvgjsPath1373" d="M 0 0L 109.781 0L 109.781 25.649L 0 25.649Z" stroke="none" fill="none"></path><g id="SvgjsG1374"><text id="SvgjsText1375" font-family="&quot;Times New Roman&quot;" text-anchor="middle" font-size="18px" width="110px" fill="#323232" font-weight="700" align="middle" lineHeight="125%" anchor="middle" family="&quot;Times New Roman&quot;" size="18px" weight="700" font-style="" opacity="1" y="-2.9254999999999995" transform="rotate(0)"><tspan id="SvgjsTspan1376" dy="22.5" x="55"><tspan id="SvgjsTspan1377" style="">QAssert</tspan></tspan></text></g></g><g id="SvgjsG1378" transform="translate(349.92763922474353,414.6192039768358)"><path id="SvgjsPath1379" d="M 6.032 0L 82.966 0C 91.01 0 91.01 18.097 82.966 18.097L 6.032 18.097C -2.011 18.097 -2.011 0 6.032 0Z" stroke-dasharray="7.5,3" stroke="rgba(50,50,50,1)" stroke-width="1.5" fill-opacity="1" fill="#d6d6d6"></path><g id="SvgjsG1380"><text id="SvgjsText1381" font-family="&quot;Times New Roman&quot;" text-anchor="middle" font-size="14px" width="69px" fill="#323232" font-weight="700" align="middle" lineHeight="125%" anchor="middle" family="&quot;Times New Roman&quot;" size="14px" weight="700" font-style="" opacity="1" y="-2.7014999999999993" transform="rotate(0)"><tspan id="SvgjsTspan1382" dy="17.5" x="44.5"><tspan id="SvgjsTspan1383" style="">QAssert_L</tspan></tspan></text></g></g><g id="SvgjsG1384" transform="translate(350.7851469645168,380.83591872078205)"><path id="SvgjsPath1385" d="M 6.102 0L 81.181 0C 89.318 0 89.318 18.307 81.181 18.307L 6.102 18.307C -2.034 18.307 -2.034 0 6.102 0Z" stroke-dasharray="7.5,3" stroke="rgba(50,50,50,1)" stroke-width="1.5" fill-opacity="1" fill="#d6d6d6"></path><g id="SvgjsG1386"><text id="SvgjsText1387" font-family="&quot;Times New Roman&quot;" text-anchor="middle" font-size="14px" width="68px" fill="#323232" font-weight="700" align="middle" lineHeight="125%" anchor="middle" family="&quot;Times New Roman&quot;" size="14px" weight="700" font-style="" opacity="1" y="-2.5965000000000007" transform="rotate(0)"><tspan id="SvgjsTspan1388" dy="17.5" x="44"><tspan id="SvgjsTspan1389" style="">QSepar</tspan></tspan></text></g></g><g id="SvgjsG1390" transform="translate(42.52880847334512,254.0621304914667)"><path id="SvgjsPath1391" d="M 0 4Q 0 0 4 0L 451.78 0Q 455.78 0 455.78 4L 455.78 56.489Q 455.78 60.489 451.78 60.489L 4 60.489Q 0 60.489 0 56.489Z" stroke="rgba(50,50,50,1)" stroke-width="1.5" fill="none"></path><g id="SvgjsG1392"><text id="SvgjsText1393" font-family="&quot;Times New Roman&quot;" text-anchor="middle" font-size="14px" width="436px" fill="#323232" font-weight="700" align="middle" lineHeight="125%" anchor="middle" family="&quot;Times New Roman&quot;" size="14px" weight="700" font-style="" opacity="1" y="18.4945" transform="rotate(0)"></text></g></g><g id="SvgjsG1394" transform="translate(32.07257792492487,251.43691013073635)"><path id="SvgjsPath1395" d="M 0 0L 99.021 0L 99.021 31.199L 0 31.199Z" stroke="none" fill="none"></path><g id="SvgjsG1396"><text id="SvgjsText1397" font-family="&quot;Times New Roman&quot;" text-anchor="middle" font-size="18px" width="100px" fill="#323232" font-weight="700" align="middle" lineHeight="125%" anchor="middle" family="&quot;Times New Roman&quot;" size="18px" weight="700" font-style="" opacity="1" y="-0.1504999999999992" transform="rotate(0)"><tspan id="SvgjsTspan1398" dy="22.5" x="50"><tspan id="SvgjsTspan1399" style="">QRule</tspan></tspan></text></g></g><g id="SvgjsG1400" transform="translate(55.28151335165782,286.8612543177788)"><path id="SvgjsPath1401" d="M 5.85 0L 85.91 0C 93.71 0 93.71 17.55 85.91 17.55L 5.85 17.55C -1.95 17.55 -1.95 0 5.85 0Z" stroke-dasharray="7.5,3" stroke="rgba(50,50,50,1)" stroke-width="1.5" fill-opacity="1" fill="#d6d6d6"></path><g id="SvgjsG1402"><text id="SvgjsText1403" font-family="&quot;Times New Roman&quot;" text-anchor="middle" font-size="14px" width="72px" fill="#323232" font-weight="700" align="middle" lineHeight="125%" anchor="middle" family="&quot;Times New Roman&quot;" size="14px" weight="700" font-style="" opacity="1" y="-2.9749999999999996" transform="rotate(0)"><tspan id="SvgjsTspan1404" dy="17.5" x="46"><tspan id="SvgjsTspan1405" style="">QRule_E_L</tspan></tspan></text></g></g><g id="SvgjsG1406" transform="translate(169.45006188588764,286.47126153773786)"><path id="SvgjsPath1407" d="M 6.11 0L 82.047 0C 90.193 0 90.193 18.33 82.047 18.33L 6.11 18.33C -2.037 18.33 -2.037 0 6.11 0Z" stroke-dasharray="7.5,3" stroke="rgba(50,50,50,1)" stroke-width="1.5" fill-opacity="1" fill="#d6d6d6"></path><g id="SvgjsG1408"><text id="SvgjsText1409" font-family="&quot;Times New Roman&quot;" text-anchor="middle" font-size="14px" width="69px" fill="#323232" font-weight="700" align="middle" lineHeight="125%" anchor="middle" family="&quot;Times New Roman&quot;" size="14px" weight="700" font-style="" opacity="1" y="-2.585000000000001" transform="rotate(0)"><tspan id="SvgjsTspan1410" dy="17.5" x="44.5"><tspan id="SvgjsTspan1411" style="">QRule_I_L</tspan></tspan></text></g></g><g id="SvgjsG1412" transform="translate(285.84731938046644,287.25124709781954)"><path id="SvgjsPath1413" d="M 5.59 0L 87.655 0C 95.108 0 95.108 16.77 87.655 16.77L 5.59 16.77C -1.863 16.77 -1.863 0 5.59 0Z" stroke-dasharray="7.5,3" stroke="rgba(50,50,50,1)" stroke-width="1.5" fill-opacity="1" fill="#d6d6d6"></path><g id="SvgjsG1414"><text id="SvgjsText1415" font-family="&quot;Times New Roman&quot;" text-anchor="middle" font-size="14px" width="74px" fill="#323232" font-weight="700" align="middle" lineHeight="125%" anchor="middle" family="&quot;Times New Roman&quot;" size="14px" weight="700" font-style="" opacity="1" y="-3.365" transform="rotate(0)"><tspan id="SvgjsTspan1416" dy="17.5" x="47"><tspan id="SvgjsTspan1417" style="">QRule_Q_L</tspan></tspan></text></g></g><g id="SvgjsG1418" transform="translate(407.3327398758047,287.25124709781954)"><path id="SvgjsPath1419" d="M 5.59 0L 69.6 0C 77.053 0 77.053 16.77 69.6 16.77L 5.59 16.77C -1.863 16.77 -1.863 0 5.59 0Z" stroke-dasharray="7.5,3" stroke="rgba(50,50,50,1)" stroke-width="1.5" fill-opacity="1" fill="#d6d6d6"></path><g id="SvgjsG1420"><text id="SvgjsText1421" font-family="&quot;Times New Roman&quot;" text-anchor="middle" font-size="14px" width="56px" fill="#323232" font-weight="700" align="middle" lineHeight="125%" anchor="middle" family="&quot;Times New Roman&quot;" size="14px" weight="700" font-style="" opacity="1" y="-3.365" transform="rotate(0)"><tspan id="SvgjsTspan1422" dy="17.5" x="38"><tspan id="SvgjsTspan1423" style="">QFrame</tspan></tspan></text></g></g><g id="SvgjsG1424" transform="translate(104.06305826847546,125.05474988117294)"><path id="SvgjsPath1425" d="M 0 4Q 0 0 4 0L 328.711 0Q 332.711 0 332.711 4L 332.711 96.141Q 332.711 100.141 328.711 100.141L 4 100.141Q 0 100.141 0 96.141Z" stroke="rgba(50,50,50,1)" stroke-width="1.5" fill="none"></path><g id="SvgjsG1426"><text id="SvgjsText1427" font-family="&quot;Times New Roman&quot;" text-anchor="middle" font-size="14px" width="313px" fill="#323232" font-weight="700" align="middle" lineHeight="125%" anchor="middle" family="&quot;Times New Roman&quot;" size="14px" weight="700" font-style="" opacity="1" y="38.3205" transform="rotate(0)"></text></g></g><g id="SvgjsG1428" transform="translate(94.43095479699173,122.1108446729333)"><path id="SvgjsPath1429" d="M 0 0L 99.021 0L 99.021 40L 0 40Z" stroke="none" fill="none"></path><g id="SvgjsG1430"><text id="SvgjsText1431" font-family="&quot;Times New Roman&quot;" text-anchor="middle" font-size="18px" width="100px" fill="#323232" font-weight="700" align="middle" lineHeight="125%" anchor="middle" family="&quot;Times New Roman&quot;" size="18px" weight="700" font-style="" opacity="1" y="4.25" transform="rotate(0)"><tspan id="SvgjsTspan1432" dy="22.5" x="50"><tspan id="SvgjsTspan1433" style="">Examples</tspan></tspan></text></g></g><g id="SvgjsG1434" transform="translate(131.09379950711644,161.98460888041555)"><path id="SvgjsPath1435" d="M 5.479 0L 72.748 0C 80.053 0 80.053 16.437 72.748 16.437L 5.479 16.437C -1.826 16.437 -1.826 0 5.479 0Z" stroke-dasharray="7.5,3" stroke="rgba(50,50,50,1)" stroke-width="1.5" fill-opacity="1" fill="#d6d6d6"></path><g id="SvgjsG1436"><text id="SvgjsText1437" font-family="&quot;Times New Roman&quot;" text-anchor="middle" font-size="14px" width="59px" fill="#323232" font-weight="700" align="middle" lineHeight="125%" anchor="middle" family="&quot;Times New Roman&quot;" size="14px" weight="700" font-style="" opacity="1" y="-3.5314999999999994" transform="rotate(0)"><tspan id="SvgjsTspan1438" dy="17.5" x="39.5"><tspan id="SvgjsTspan1439" style="">addM</tspan></tspan></text></g></g><g id="SvgjsG1440" transform="translate(232.42170326827033,161.98460888041555)"><path id="SvgjsPath1441" d="M 5.479 0L 79.043 0C 86.348 0 86.348 16.437 79.043 16.437L 5.479 16.437C -1.826 16.437 -1.826 0 5.479 0Z" stroke-dasharray="7.5,3" stroke="rgba(50,50,50,1)" stroke-width="1.5" fill-opacity="1" fill="#d6d6d6"></path><g id="SvgjsG1442"><text id="SvgjsText1443" font-family="&quot;Times New Roman&quot;" text-anchor="middle" font-size="14px" width="65px" fill="#323232" font-weight="700" align="middle" lineHeight="125%" anchor="middle" family="&quot;Times New Roman&quot;" size="14px" weight="700" font-style="" opacity="1" y="-3.5314999999999994" transform="rotate(0)"><tspan id="SvgjsTspan1444" dy="17.5" x="42.5"><tspan id="SvgjsTspan1445" style="">HHL</tspan></tspan></text></g></g><g id="SvgjsG1446" transform="translate(339.71863627077664,162.7673275439962)"><path id="SvgjsPath1447" d="M 5.218 0L 72.372 0C 79.33 0 79.33 15.654 72.372 15.654L 5.218 15.654C -1.739 15.654 -1.739 0 5.218 0Z" stroke-dasharray="7.5,3" stroke="rgba(50,50,50,1)" stroke-width="1.5" fill-opacity="1" fill="#d6d6d6"></path><g id="SvgjsG1448"><text id="SvgjsText1449" font-family="&quot;Times New Roman&quot;" text-anchor="middle" font-size="14px" width="58px" fill="#323232" font-weight="700" align="middle" lineHeight="125%" anchor="middle" family="&quot;Times New Roman&quot;" size="14px" weight="700" font-style="" opacity="1" y="-3.923" transform="rotate(0)"><tspan id="SvgjsTspan1450" dy="17.5" x="39"><tspan id="SvgjsTspan1451" style="">OF</tspan></tspan></text></g></g><g id="SvgjsG1452" transform="translate(339.71863627077664,200.90693418126574)"><path id="SvgjsPath1453" d="M 6.018 0L 71.572 0C 79.597 0 79.597 18.054 71.572 18.054L 6.018 18.054C -2.006 18.054 -2.006 0 6.018 0Z" stroke-dasharray="7.5,3" stroke="rgba(50,50,50,1)" stroke-width="1.5" fill-opacity="1" fill="#d6d6d6"></path><g id="SvgjsG1454"><text id="SvgjsText1455" font-family="&quot;Times New Roman&quot;" text-anchor="middle" font-size="14px" width="58px" fill="#323232" font-weight="700" align="middle" lineHeight="125%" anchor="middle" family="&quot;Times New Roman&quot;" size="14px" weight="700" font-style="" opacity="1" y="-2.7230000000000008" transform="rotate(0)"><tspan id="SvgjsTspan1456" dy="17.5" x="39"><tspan id="SvgjsTspan1457" style="">Shor</tspan></tspan></text></g></g><g id="SvgjsG1458"><path id="SvgjsPath1459" d="M168.70006188588764 295.6360918686975L158.24562658078787 295.6360918686975L158.24562658078787 295.6360918686976L149.7411912756881 295.6360918686976" stroke="#323232" stroke-width="1.5" fill="none" marker-end="url(#SvgjsMarker1460)"></path></g><g id="SvgjsG1462"><path id="SvgjsPath1463" d="M285.09731938046644 295.63609186869746L271.7271072566791 295.63609186869746L271.7271072566791 295.6360918686975L260.3068951328917 295.6360918686975" stroke="#323232" stroke-width="1.5" fill="none" marker-end="url(#SvgjsMarker1464)"></path></g><g id="SvgjsG1466"><path id="SvgjsPath1467" d="M406.5827398758047 295.63609186869746L393.2125277520172 295.63609186869746L393.2125277520172 295.63609186869746L381.79231562822974 295.63609186869746" stroke="#323232" stroke-width="1.5" fill="none" marker-end="url(#SvgjsMarker1468)"></path></g><g id="SvgjsG1470"><path id="SvgjsPath1471" d="M390.50923499570797 521.5440606810165L403.77769270798353 521.5440606810165L403.77769270798353 521.5440606810166L415.09615042025916 521.5440606810166" stroke="#323232" stroke-width="1.5" fill="none" marker-end="url(#SvgjsMarker1472)"></path></g><g id="SvgjsG1474"><path id="SvgjsPath1475" d="M257.01201075191136 521.5440606810167L272.2035295658267 521.5440606810167L272.2035295658267 521.5440606810165L285.4450483797421 521.5440606810165" stroke="#323232" stroke-width="1.5" fill="none" marker-end="url(#SvgjsMarker1476)"></path></g><g id="SvgjsG1478"><path id="SvgjsPath1479" d="M143.99826965883722 521.5440606810167L156.18580270921 521.5440606810167L156.18580270921 521.5440606810167L166.4233357595828 521.5440606810167" stroke="#323232" stroke-width="1.5" fill="none" marker-end="url(#SvgjsMarker1480)"></path></g><g id="SvgjsG1482"><path id="SvgjsPath1483" d="M274.6893236384019 550.4721774257553L274.83484577769 567.0223107837522" stroke="#323232" stroke-width="1.5" fill="none" marker-end="url(#SvgjsMarker1484)"></path></g><g id="SvgjsG1486" transform="translate(85.61004765411377,607.5036447243778)"><path id="SvgjsPath1487" d="M 6.817 0L 96.742 0C 105.832 0 105.832 20.452 96.742 20.452L 6.817 20.452C -2.272 20.452 -2.272 0 6.817 0Z" stroke-dasharray="1.5,2.25" stroke="rgba(50,50,50,1)" stroke-width="1.5" fill-opacity="1" fill="#e5f6da"></path><g id="SvgjsG1488"><text id="SvgjsText1489" font-family="&quot;Times New Roman&quot;" text-anchor="middle" font-size="14px" width="84px" fill="#323232" font-weight="700" align="middle" lineHeight="125%" anchor="middle" family="&quot;Times New Roman&quot;" size="14px" weight="700" font-style="" opacity="1" y="-1.5239999999999991" transform="rotate(0)"><tspan id="SvgjsTspan1490" dy="17.5" x="52"><tspan id="SvgjsTspan1491" style="">Summation</tspan></tspan></text></g></g><g id="SvgjsG1492" transform="translate(237.84277680639696,608.2749920977549)"><path id="SvgjsPath1493" d="M 6.303 0L 82.84 0C 91.244 0 91.244 18.909 82.84 18.909L 6.303 18.909C -2.101 18.909 -2.101 0 6.303 0Z" stroke-dasharray="1.5,2.25" stroke="rgba(50,50,50,1)" stroke-width="1.5" fill-opacity="1" fill="#e5f6da"></path><g id="SvgjsG1494"><text id="SvgjsText1495" font-family="&quot;Times New Roman&quot;" text-anchor="middle" font-size="14px" width="70px" fill="#323232" font-weight="700" align="middle" lineHeight="125%" anchor="middle" family="&quot;Times New Roman&quot;" size="14px" weight="700" font-style="" opacity="1" y="-2.2955000000000005" transform="rotate(0)"><tspan id="SvgjsTspan1496" dy="17.5" x="45"><tspan id="SvgjsTspan1497" style="">Matrix</tspan></tspan></text></g></g><g id="SvgjsG1498" transform="translate(386.9962709075794,608.5488737107468)"><path id="SvgjsPath1499" d="M 6.12 0L 80.999 0C 89.16 0 89.16 18.361 80.999 18.361L 6.12 18.361C -2.04 18.361 -2.04 0 6.12 0Z" stroke-dasharray="1.5,2.25" stroke="rgba(50,50,50,1)" stroke-width="1.5" fill-opacity="1" fill="#e5f6da"></path><g id="SvgjsG1500"><text id="SvgjsText1501" font-family="&quot;Times New Roman&quot;" text-anchor="middle" font-size="14px" width="68px" fill="#323232" font-weight="700" align="middle" lineHeight="125%" anchor="middle" family="&quot;Times New Roman&quot;" size="14px" weight="700" font-style="" opacity="1" y="-2.5694999999999997" transform="rotate(0)"><tspan id="SvgjsTspan1502" dy="17.5" x="44"><tspan id="SvgjsTspan1503" style="">Quantum</tspan></tspan></text></g></g><g id="SvgjsG1504" transform="translate(32.07257792492487,574.8413464259938)"><path id="SvgjsPath1505" d="M 0 0L 124.538 0L 124.538 30.906L 0 30.906Z" stroke="none" fill="none"></path><g id="SvgjsG1506"><text id="SvgjsText1507" font-family="&quot;Times New Roman&quot;" text-anchor="middle" font-size="20px" width="125px" fill="#323232" font-weight="700" align="middle" lineHeight="125%" anchor="middle" family="&quot;Times New Roman&quot;" size="20px" weight="700" font-style="" opacity="1" y="-2.5470000000000006" transform="rotate(0)"><tspan id="SvgjsTspan1508" dy="25" x="62.5"><tspan id="SvgjsTspan1509" style="">QuantumLib</tspan></tspan></text></g></g><g id="SvgjsG1510"><path id="SvgjsPath1511" d="M237.09277680639696 617.7295959928776L213.50604557289114 617.7295959928776L213.50604557289114 617.7295959928776L191.86931433938537 617.7295959928776" stroke="#323232" stroke-width="1.5" fill="none" marker-end="url(#SvgjsMarker1512)"></path></g><g id="SvgjsG1514"><path id="SvgjsPath1515" d="M386.2462709075794 617.7295959928779L356.9910450465404 617.7295959928779L356.9910450465404 617.7295959928778L329.6858191855015 617.7295959928778" stroke="#323232" stroke-width="1.5" fill="none" marker-end="url(#SvgjsMarker1516)"></path></g><g id="SvgjsG1518" transform="translate(339.7186362707765,49.34562672838727)"><path id="SvgjsPath1519" d="M 5.218 0L 72.372 0C 79.33 0 79.33 15.654 72.372 15.654L 5.218 15.654C -1.739 15.654 -1.739 0 5.218 0Z" stroke-dasharray="1.5,2.25" stroke="rgba(50,50,50,1)" stroke-width="1.5" fill-opacity="1" fill="#e5f6da"></path><g id="SvgjsG1520"><text id="SvgjsText1521" font-family="&quot;Times New Roman&quot;" text-anchor="middle" font-size="14px" width="58px" fill="#323232" font-weight="700" align="middle" lineHeight="125%" anchor="middle" family="&quot;Times New Roman&quot;" size="14px" weight="700" font-style="" opacity="1" y="-3.923" transform="rotate(0)"><tspan id="SvgjsTspan1522" dy="17.5" x="39"><tspan id="SvgjsTspan1523" style="">ContFrac</tspan></tspan></text></g></g><g id="SvgjsG1524"><path id="SvgjsPath1525" d="M162.42995479699175 438.9568800401849L162.42995479699175 454.4951472532144L274.03850840793143 454.4951472532144L274.03850840793143 476.3555346636945" stroke="#323232" stroke-width="1.5" fill="none" marker-end="url(#SvgjsMarker1526)"></path></g><g id="SvgjsG1528"><path id="SvgjsPath1529" d="M389.3537489101492 439.97500267897334L389.3537489101493 455.0869816684609L274.03850840793143 455.0869816684609L274.03850840793143 476.3555346636945" stroke="#323232" stroke-width="1.5" fill="none" marker-end="url(#SvgjsMarker1530)"></path></g><g id="SvgjsG1532"><path id="SvgjsPath1533" d="M270.41905826847545 225.94647042370957L270.41905826847545 239.6293004575881L270.41880847334505 239.6293004575881L270.41880847334505 251.3621304914667" stroke="#323232" stroke-width="1.5" fill="none" marker-end="url(#SvgjsMarker1534)"></path></g><g id="SvgjsG1536"><path id="SvgjsPath1537" d="M270.41880847334505 315.3010589387568L270.4188084733451 335.1013003939437L162.42995479699175 335.1013003939437L162.42995479699175 352.95154184913054" stroke="#323232" stroke-width="1.5" fill="none" marker-end="url(#SvgjsMarker1538)"></path></g><g id="SvgjsG1540"><path id="SvgjsPath1541" d="M270.41880847334505 315.3010589387568L270.4188084733451 335.1013003939437L389.3537489101493 335.1013003939437L389.3537489101493 352.95154184913054" stroke="#323232" stroke-width="1.5" fill="none" marker-end="url(#SvgjsMarker1542)"></path></g><g id="SvgjsG1544"><path id="SvgjsPath1545" d="M165.3824523646726 399.42866493577844L165.3824523646726 406.3829524440898L165.3824523646726 406.3829524440898L165.3824523646726 411.3872399524012" stroke="#323232" stroke-width="1.5" fill="none" marker-end="url(#SvgjsMarker1546)"></path></g><g id="SvgjsG1548"><path id="SvgjsPath1549" d="M394.42714696451685 399.89273132666574L394.42714696451685 406.8809676517508L394.42714696451685 406.8809676517508L394.42714696451685 411.91920397683583" stroke="#323232" stroke-width="1.5" fill="none" marker-end="url(#SvgjsMarker1550)"></path></g><g id="SvgjsG1552" transform="translate(25,85.88085999063037)"><path id="SvgjsPath1553" d="M 0 0L 99.021 0L 99.021 40L 0 40Z" stroke="none" fill="none"></path><g id="SvgjsG1554"><text id="SvgjsText1555" font-family="&quot;Times New Roman&quot;" text-anchor="middle" font-size="20px" width="100px" fill="#323232" font-weight="700" align="middle" lineHeight="125%" anchor="middle" family="&quot;Times New Roman&quot;" size="20px" weight="700" font-style="" opacity="1" y="2" transform="rotate(0)"><tspan id="SvgjsTspan1556" dy="25" x="50"><tspan id="SvgjsTspan1557" style="">CoqQLR</tspan></tspan></text></g></g><g id="SvgjsG1558"><path id="SvgjsPath1559" d="M319.97074891014927 397.4375418491305L278.0753518535705 397.4375418491305L278.0753518535705 397.4375418491305L238.12995479699174 397.4375418491305" stroke="#323232" stroke-width="1.5" fill="none" marker-end="url(#SvgjsMarker1560)"></path></g><g id="SvgjsG1562"><path id="SvgjsPath1563" d="M231.67170326827033 170.20360888041554L220.8712513876934 170.20360888041554L220.8712513876934 170.20360888041554L212.02079950711646 170.20360888041554" stroke="#323232" stroke-width="1.5" fill="none" marker-end="url(#SvgjsMarker1564)"></path></g><g id="SvgjsG1566"><path id="SvgjsPath1567" d="M338.96863627077664 170.5943275439962L328.3311697695235 170.5943275439962L328.3311697695235 170.5943275439962L319.6437032682703 170.5943275439962" stroke="#323232" stroke-width="1.5" fill="none" marker-end="url(#SvgjsMarker1568)"></path></g><g id="SvgjsG1570" transform="translate(219.50868021170436,29.055534663694516)"><path id="SvgjsPath1571" d="M 0 0L 218.56 0L 218.56 44L 0 44Z" stroke-dasharray="7.5,3" stroke="rgba(50,50,50,1)" stroke-width="1.5" fill="none"></path><g id="SvgjsG1572"><text id="SvgjsText1573" font-family="&quot;Times New Roman&quot;" text-anchor="middle" font-size="14px" width="199px" fill="#323232" font-weight="700" align="middle" lineHeight="125%" anchor="middle" family="&quot;Times New Roman&quot;" size="14px" weight="700" font-style="" opacity="1" y="10.25" transform="rotate(0)"></text></g></g><g id="SvgjsG1574" transform="translate(209.32056455704776,25)"><path id="SvgjsPath1575" d="M 0 0L 99.021 0L 99.021 40L 0 40Z" stroke="none" fill="none"></path><g id="SvgjsG1576"><text id="SvgjsText1577" font-family="&quot;Times New Roman&quot;" text-anchor="middle" font-size="20px" width="100px" fill="#323232" font-weight="700" align="middle" lineHeight="125%" anchor="middle" family="&quot;Times New Roman&quot;" size="20px" weight="700" font-style="" opacity="1" y="2" transform="rotate(0)"><tspan id="SvgjsTspan1578" dy="25" x="50"><tspan id="SvgjsTspan1579" style="">SQIR</tspan></tspan></text></g></g><g id="SvgjsG1580"><path id="SvgjsPath1581" d="M378.5136362707766 200.15693418126574L378.5136362707766 189.66413086263097L378.5136362707766 189.66413086263097L378.5136362707766 181.1213275439962" stroke="#323232" stroke-width="1.5" fill="none" marker-end="url(#SvgjsMarker1582)"></path></g><g id="SvgjsG1584"><path id="SvgjsPath1585" d="M378.5136362707766 162.0173275439962L378.5136362707766 113.88347713619174L378.5136362707765 113.88347713619174L378.5136362707765 67.69962672838727" stroke="#323232" stroke-width="1.5" fill="none" marker-end="url(#SvgjsMarker1586)"></path></g><g id="SvgjsG1588"></g><g id="normal_brand" transform="translate(209.44847885994568,355.2494140939253)"><text id="SvgjsText1590" font-family="Helvetica, Arial, sans-serif" style="transform:rotate(-30deg);opacity: 0.06; color:#000; font-family: Microsoft Yahei;"><tspan id="SvgjsTspan1591" font-size="26" dy="0" x="0"></tspan></text></g></svg>